<?xml version="1.0" standalone="no"?>
<!DOCTYPE svg PUBLIC "-//W3C//DTD SVG 20010904//EN"
 "http://www.w3.org/TR/2001/REC-SVG-20010904/DTD/svg10.dtd">
<svg version="1.0" xmlns="http://www.w3.org/2000/svg"
 width="540.000000pt" height="540.000000pt" viewBox="0 0 540.000000 540.000000"
 preserveAspectRatio="xMidYMid meet">

<g transform="translate(0.000000,540.000000) scale(0.100000,-0.100000)"
fill="#000000" stroke="none">
<path d="M380 3495 l0 -1905 2320 0 2320 0 0 1475 0 1475 -407 2 -408 3 -5
425 c-3 234 -7 426 -8 428 -1 1 -859 2 -1907 2 l-1905 0 0 -1905z m3385 1260
l0 -210 -407 -3 -408 -2 0 -1255 0 -1255 -1070 0 -1070 0 0 1463 c0 805 3
1467 7 1470 3 4 668 6 1477 5 l1471 -3 0 -210z m825 -1680 l0 -1045 -605 0
-605 0 0 1045 0 1045 605 0 605 0 0 -1045z"/>
<path d="M2198 2647 c-16 -6 -28 -14 -28 -19 0 -4 -6 -8 -13 -8 -8 0 -23 -10
-34 -22 -96 -105 -82 -247 32 -324 43 -30 58 -34 113 -34 62 0 132 22 132 41
0 5 6 9 13 9 8 0 20 11 27 25 7 14 17 25 22 25 4 0 8 9 8 19 0 11 5 23 10 26
6 3 10 30 10 60 0 30 -4 57 -10 60 -5 3 -10 13 -10 21 0 30 -84 114 -114 114
-8 0 -18 5 -21 10 -8 13 -102 11 -137 -3z"/>
<path d="M3911 2645 c-44 -16 -103 -69 -121 -109 -18 -38 -19 -168 -2 -174 7
-2 12 -10 12 -17 0 -21 56 -74 95 -91 45 -18 136 -18 181 1 37 15 94 71 94 92
0 6 5 13 12 15 18 6 16 138 -2 174 -49 97 -168 146 -269 109z"/>
<path d="M380 185 l0 -185 2320 0 2320 0 0 185 0 185 -2320 0 -2320 0 0 -185z"/>
</g>
</svg>
