<?xml version="1.0" standalone="no"?>
<!DOCTYPE svg PUBLIC "-//W3C//DTD SVG 20010904//EN"
 "http://www.w3.org/TR/2001/REC-SVG-20010904/DTD/svg10.dtd">
<svg version="1.0" xmlns="http://www.w3.org/2000/svg"
 width="540.000000pt" height="540.000000pt" viewBox="0 0 540.000000 540.000000"
 preserveAspectRatio="xMidYMid meet">

<g transform="translate(0.000000,540.000000) scale(0.100000,-0.100000)"
fill="#000000" stroke="none">
<path d="M1246 5384 c-8 -20 -8 -3758 0 -3778 5 -14 34 -16 215 -16 l209 0 0
1905 0 1905 -209 0 c-181 0 -210 -2 -215 -16z"/>
<path d="M380 3075 l0 -1485 209 0 c181 0 210 2 215 16 3 9 6 677 6 1485 l0
1469 -215 0 -215 0 0 -1485z"/>
<path d="M2970 3075 l0 -1485 210 0 210 0 0 1485 0 1485 -210 0 -210 0 0
-1485z"/>
<path d="M2113 3953 c-18 -7 -19 -2333 -1 -2351 19 -19 395 -17 414 2 12 13
14 183 14 1179 0 1053 -2 1165 -16 1171 -19 7 -393 7 -411 -1z"/>
<path d="M3988 3862 c-10 -2 -38 -14 -63 -28 -25 -13 -53 -24 -61 -24 -7 0
-14 -4 -14 -10 0 -5 -4 -10 -9 -10 -5 0 -38 -13 -73 -29 -35 -16 -80 -36 -101
-45 -34 -14 -37 -18 -31 -43 4 -15 11 -29 16 -31 4 -2 8 -8 8 -14 0 -6 23 -57
50 -114 28 -57 50 -108 50 -114 0 -5 5 -10 10 -10 6 0 10 -6 10 -14 0 -7 16
-44 35 -82 19 -37 35 -74 35 -81 0 -7 5 -13 10 -13 6 0 10 -9 10 -20 0 -11 4
-20 8 -20 4 0 16 -22 27 -50 11 -27 23 -50 27 -50 4 0 8 -6 8 -13 0 -6 16 -45
35 -84 19 -40 35 -77 35 -83 0 -5 5 -10 10 -10 6 0 10 -9 10 -20 0 -11 5 -20
10 -20 6 0 10 -5 10 -10 0 -6 16 -43 35 -83 19 -39 35 -78 35 -84 0 -7 5 -13
10 -13 6 0 10 -5 10 -10 0 -6 23 -57 50 -114 28 -57 50 -108 50 -115 0 -6 5
-11 10 -11 6 0 10 -5 10 -11 0 -6 16 -43 35 -82 19 -39 35 -76 35 -83 0 -7 3
-14 8 -16 9 -4 62 -110 62 -126 0 -6 5 -12 10 -12 6 0 10 -6 10 -13 0 -7 16
-44 35 -83 19 -38 35 -75 35 -81 0 -7 5 -13 10 -13 6 0 10 -4 10 -10 0 -15 53
-125 62 -128 4 -2 8 -8 8 -14 0 -27 46 -108 62 -108 20 0 91 31 96 43 2 4 15
7 28 7 13 0 24 5 24 10 0 6 4 10 10 10 18 0 222 100 218 108 -2 4 -25 51 -51
105 -26 54 -47 102 -47 107 0 6 -4 10 -10 10 -5 0 -10 6 -10 13 0 6 -16 45
-35 84 -19 40 -35 77 -35 83 0 5 -4 10 -10 10 -5 0 -10 9 -10 20 0 11 -4 20
-10 20 -5 0 -10 5 -10 10 0 6 -16 43 -35 83 -19 39 -35 78 -35 84 0 7 -4 13
-8 13 -4 0 -16 23 -27 50 -11 28 -23 50 -27 50 -4 0 -8 9 -8 20 0 11 -4 20
-10 20 -5 0 -10 6 -10 13 0 7 -16 44 -35 81 -19 38 -35 75 -35 82 0 8 -4 14
-10 14 -5 0 -10 5 -10 10 0 6 -22 57 -50 114 -27 57 -50 108 -50 115 0 6 -4
11 -10 11 -5 0 -10 6 -10 14 0 7 -16 44 -35 82 -19 37 -35 74 -35 81 0 7 -3
13 -7 13 -5 0 -21 32 -38 70 -16 38 -33 70 -37 70 -5 0 -8 11 -8 24 0 13 -3
26 -7 28 -10 4 -63 110 -63 126 0 6 -4 12 -10 12 -5 0 -10 6 -10 12 0 16 -53
122 -62 126 -5 2 -8 15 -8 28 0 13 -3 24 -7 24 -5 0 -21 32 -38 70 -31 72 -38
79 -67 72z"/>
<path d="M380 185 l0 -185 2320 0 2320 0 0 185 0 185 -2320 0 -2320 0 0 -185z"/>
</g>
</svg>
