<?xml version="1.0" standalone="no"?>
<!DOCTYPE svg PUBLIC "-//W3C//DTD SVG 20010904//EN"
 "http://www.w3.org/TR/2001/REC-SVG-20010904/DTD/svg10.dtd">
<svg version="1.0" xmlns="http://www.w3.org/2000/svg"
 width="540.000000pt" height="540.000000pt" viewBox="0 0 540.000000 540.000000"
 preserveAspectRatio="xMidYMid meet">

<g transform="translate(0.000000,540.000000) scale(0.100000,-0.100000)"
fill="#000000" stroke="none">
<path d="M380 4035 l0 -1365 1053 -2 1052 -3 3 -538 2 -537 210 0 210 0 2 537
3 538 1053 3 1052 2 0 1365 0 1365 -2320 0 -2320 0 0 -1365z m4205 -5 l0 -935
-1885 0 -1885 0 -3 925 c-1 509 0 931 3 938 3 10 386 12 1887 10 l1883 -3 0
-935z"/>
<path d="M1210 4395 l0 -185 1083 2 1082 3 3 160 c1 88 0 170 -3 183 l-5 22
-1080 0 -1080 0 0 -185z"/>
<path d="M1210 3670 l0 -180 889 0 c489 0 896 3 905 6 14 5 16 30 16 174 0
144 -2 169 -16 174 -9 3 -416 6 -905 6 l-889 0 0 -180z"/>
<path d="M380 185 l0 -185 2320 0 2320 0 0 185 0 185 -2320 0 -2320 0 0 -185z"/>
</g>
</svg>
