<?xml version="1.0" standalone="no"?>
<!DOCTYPE svg PUBLIC "-//W3C//DTD SVG 20010904//EN"
 "http://www.w3.org/TR/2001/REC-SVG-20010904/DTD/svg10.dtd">
<svg version="1.0" xmlns="http://www.w3.org/2000/svg"
 width="540.000000pt" height="540.000000pt" viewBox="0 0 540.000000 540.000000"
 preserveAspectRatio="xMidYMid meet">

<g transform="translate(0.000000,540.000000) scale(0.100000,-0.100000)"
fill="#000000" stroke="none">
<path d="M380 3801 c0 -1402 2 -1607 15 -1663 9 -35 20 -71 25 -80 6 -10 10
-25 10 -33 0 -8 5 -15 10 -15 6 0 10 -7 10 -15 0 -14 45 -93 59 -105 3 -3 19
-23 36 -45 16 -22 38 -48 49 -57 12 -10 26 -22 33 -28 7 -5 15 -10 19 -10 4 0
14 -8 23 -18 9 -9 35 -26 58 -37 24 -11 43 -23 43 -27 0 -5 8 -8 18 -8 10 0
22 -4 28 -9 13 -12 126 -38 224 -51 116 -15 3295 -8 3390 8 70 12 144 33 156
45 4 4 16 7 26 7 10 0 18 3 18 8 0 4 19 16 43 27 23 11 49 28 58 37 9 10 20
18 23 18 4 0 14 7 22 15 8 8 23 20 32 27 10 7 31 31 47 53 17 22 33 42 36 45
14 12 59 91 59 105 0 8 5 15 10 15 6 0 10 8 10 18 0 10 4 22 9 28 5 5 16 42
25 83 14 65 16 200 16 1237 l0 1164 -485 0 -485 0 -2 428 -3 427 -1832 3
-1833 2 0 -1599z m3227 1161 c10 -6 14 -305 16 -1403 2 -766 7 -1413 12 -1436
4 -24 11 -43 15 -43 4 0 10 -11 12 -25 l5 -25 -1329 0 c-1497 0 -1360 -8
-1450 79 -26 25 -48 54 -48 63 0 9 -6 18 -12 20 -10 4 -14 290 -16 1379 -1
755 0 1379 2 1386 4 11 277 13 1393 13 763 0 1394 -4 1400 -8z m978 -1806 c0
-759 -3 -960 -12 -964 -7 -2 -13 -11 -13 -20 -1 -23 -86 -103 -133 -125 -49
-22 -162 -23 -217 -1 -22 9 -40 20 -40 25 0 5 -5 9 -10 9 -14 0 -60 46 -60 59
0 5 -3 11 -7 13 -5 2 -16 20 -25 41 -17 35 -18 104 -18 983 l0 944 268 -2 267
-3 0 -959z"/>
<path d="M1242 4333 l3 -178 965 0 965 0 3 178 2 177 -970 0 -970 0 2 -177z"/>
<path d="M1244 3777 c-2 -7 -3 -87 -2 -177 l3 -165 968 -3 967 -2 0 180 0 180
-965 0 c-779 0 -967 -2 -971 -13z"/>
<path d="M1240 2885 l0 -175 755 0 755 0 0 175 0 175 -755 0 -755 0 0 -175z"/>
<path d="M380 185 l0 -185 2320 0 2320 0 0 185 0 185 -2320 0 -2320 0 0 -185z"/>
</g>
</svg>
