<?xml version="1.0" standalone="no"?>
<!DOCTYPE svg PUBLIC "-//W3C//DTD SVG 20010904//EN"
 "http://www.w3.org/TR/2001/REC-SVG-20010904/DTD/svg10.dtd">
<svg version="1.0" xmlns="http://www.w3.org/2000/svg"
 width="540.000000pt" height="540.000000pt" viewBox="0 0 540.000000 540.000000"
 preserveAspectRatio="xMidYMid meet">

<g transform="translate(0.000000,540.000000) scale(0.100000,-0.100000)"
fill="#000000" stroke="none">
<path d="M2450 5390 c-14 -4 -39 -8 -57 -9 -70 -2 -214 -65 -292 -126 -51 -41
-128 -121 -146 -152 -11 -18 -23 -33 -27 -33 -4 0 -8 -9 -8 -20 0 -11 -4 -20
-9 -20 -10 0 -50 -114 -64 -185 -14 -69 -21 -1875 -7 -1889 5 -5 10 -29 10
-52 0 -24 5 -46 10 -49 6 -3 10 -15 10 -25 0 -22 50 -133 62 -138 4 -2 8 -9 8
-15 0 -7 11 -24 25 -39 14 -15 25 -30 25 -33 0 -9 71 -76 111 -106 49 -37 108
-69 125 -69 8 0 14 -4 14 -10 0 -5 8 -10 18 -10 10 0 22 -4 27 -9 12 -12 112
-33 183 -38 l52 -5 0 -189 c0 -104 -1 -190 -2 -191 -2 -1 -97 -4 -213 -7
l-210 -6 -3 -155 c-1 -85 0 -165 3 -177 l5 -23 600 0 600 0 0 180 0 180 -194
0 c-107 0 -201 3 -210 6 -14 5 -16 32 -16 195 l0 189 49 0 c61 0 183 27 235
51 22 11 46 19 53 19 7 0 13 4 13 8 0 5 18 16 40 26 46 20 210 178 210 201 0
3 11 23 25 45 14 22 25 46 25 55 0 8 5 15 10 15 6 0 10 11 10 24 0 14 4 27 9
30 21 14 25 160 25 1041 0 881 -4 1027 -25 1041 -5 3 -9 13 -9 22 0 22 -51
132 -62 132 -4 0 -8 7 -8 15 0 8 -4 15 -9 15 -5 0 -12 8 -16 19 -6 20 -113
131 -126 131 -4 0 -14 6 -21 13 -23 23 -97 67 -113 67 -8 0 -15 4 -15 9 0 5
-12 11 -27 14 -26 5 -72 15 -171 37 -51 12 -496 11 -532 0z m541 -459 c62 -29
100 -67 136 -133 17 -31 18 -85 18 -925 l0 -891 -40 -58 c-22 -31 -49 -62 -60
-68 -11 -6 -22 -13 -25 -16 -3 -3 -18 -12 -34 -20 -23 -12 -75 -15 -270 -15
-215 0 -245 2 -280 19 -48 23 -126 101 -126 126 0 10 -6 20 -12 22 -10 4 -14
69 -16 271 l-4 267 211 0 211 0 0 185 0 185 -210 0 -210 0 2 178 3 177 208 3
207 2 0 180 0 180 -207 2 -208 3 2 89 c1 49 6 92 10 95 4 3 14 17 21 31 21 40
68 90 86 90 9 0 16 4 16 8 0 9 54 28 100 36 14 2 115 3 225 2 184 -2 204 -4
246 -25z"/>
<path d="M1105 4658 c-3 -7 -4 -377 -3 -823 l3 -810 183 -3 182 -2 -2 822 -3
823 -178 3 c-136 2 -179 0 -182 -10z"/>
<path d="M3925 4658 c-3 -7 -4 -377 -3 -823 l3 -810 183 -3 182 -2 0 825 0
825 -180 0 c-135 0 -182 -3 -185 -12z"/>
<path d="M380 3845 l0 -315 185 0 185 0 0 315 0 315 -185 0 -185 0 0 -315z"/>
<path d="M4650 3845 l0 -315 185 0 185 0 0 315 0 315 -185 0 -185 0 0 -315z"/>
<path d="M387 363 c-9 -8 -9 -326 -1 -347 6 -15 219 -16 2320 -16 l2314 0 0
185 0 185 -2313 0 c-1273 0 -2317 -3 -2320 -7z"/>
</g>
</svg>
