<?xml version="1.0" standalone="no"?>
<!DOCTYPE svg PUBLIC "-//W3C//DTD SVG 20010904//EN"
 "http://www.w3.org/TR/2001/REC-SVG-20010904/DTD/svg10.dtd">
<svg version="1.0" xmlns="http://www.w3.org/2000/svg"
 width="540.000000pt" height="540.000000pt" viewBox="0 0 540.000000 540.000000"
 preserveAspectRatio="xMidYMid meet">

<g transform="translate(0.000000,540.000000) scale(0.100000,-0.100000)"
fill="#000000" stroke="none">
<path d="M440 3880 l0 -1520 1040 0 1040 0 -2 -193 -3 -192 -607 -3 -608 -2 0
-180 0 -180 1390 0 1390 0 0 180 0 180 -597 2 -598 3 -3 193 -2 192 1040 0
1040 0 0 1520 0 1520 -2260 0 -2260 0 0 -1520z m4090 0 l0 -1080 -1829 0
c-1658 0 -1829 1 -1835 16 -8 20 -8 2108 0 2128 6 15 177 16 1835 16 l1829 0
0 -1080z"/>
<path d="M3055 4084 c-319 -321 -581 -588 -583 -594 -2 -5 52 -64 120 -133
l123 -123 587 589 587 590 -66 66 c-37 36 -94 94 -127 128 l-61 62 -580 -585z"/>
<path d="M3633 3644 c-139 -140 -253 -258 -253 -262 0 -7 238 -252 244 -252 2
0 104 102 227 226 123 125 239 241 257 258 l34 33 -126 126 c-69 70 -127 127
-128 127 -2 -1 -117 -116 -255 -256z"/>
<path d="M440 185 l0 -185 2260 0 2260 0 0 185 0 185 -2260 0 -2260 0 0 -185z"/>
</g>
</svg>
