<svg xmlns="http://www.w3.org/2000/svg" width="720" height="720" version="1.0" viewBox="0 0 540 540"><g fill="#fff"><path d="M38 190.5V381h464V86l-40.7-.2-40.8-.3L420 43c-.3-23.4-.7-42.6-.8-42.8-.1-.1-85.9-.2-190.7-.2H38v190.5zm338.5-126v21l-40.7.3-40.8.2v251H81V190.7c0-80.5.3-146.7.7-147 .3-.4 66.8-.6 147.7-.5l147.1.3v21zm82.5 168V337H338V128h121v104.5z"/><path d="M219.8 275.3c-1.6.6-2.8 1.4-2.8 1.9 0 .4-.6.8-1.3.8-.8 0-2.3 1-3.4 2.2-9.6 10.5-8.2 24.7 3.2 32.4 4.3 3 5.8 3.4 11.3 3.4 6.2 0 13.2-2.2 13.2-4.1 0-.5.6-.9 1.3-.9.8 0 2-1.1 2.7-2.5.7-1.4 1.7-2.5 2.2-2.5.4 0 .8-.9.8-1.9 0-1.1.5-2.3 1-2.6.6-.3 1-3 1-6s-.4-5.7-1-6c-.5-.3-1-1.3-1-2.1 0-3-8.4-11.4-11.4-11.4-.8 0-1.8-.5-2.1-1-.8-1.3-10.2-1.1-13.7.3zM391.1 275.5c-4.4 1.6-10.3 6.9-12.1 10.9-1.8 3.8-1.9 16.8-.2 17.4.7.2 1.2 1 1.2 1.7 0 2.1 5.6 7.4 9.5 9.1 4.5 1.8 13.6 1.8 18.1-.1 3.7-1.5 9.4-7.1 9.4-9.2 0-.6.5-1.3 1.2-1.5 1.8-.6 1.6-13.8-.2-17.4-4.9-9.7-16.8-14.6-26.9-10.9zM38 521.5V540h464v-37H38v18.5z"/></g></svg>