<svg xmlns="http://www.w3.org/2000/svg" width="720" height="720" version="1.0" viewBox="0 0 540 540"><g fill="#fff"><path d="M124.6 1.6c-.8 2-.8 375.8 0 377.8.5 1.4 3.4 1.6 21.5 1.6H167V0h-20.9c-18.1 0-21 .2-21.5 1.6zM38 232.5V381h20.9c18.1 0 21-.2 21.5-1.6.3-.9.6-67.7.6-148.5V84H38v148.5zM297 232.5V381h42V84h-42v148.5zM211.3 144.7c-1.8.7-1.9 233.3-.1 235.1 1.9 1.9 39.5 1.7 41.4-.2 1.2-1.3 1.4-18.3 1.4-117.9 0-105.3-.2-116.5-1.6-117.1-1.9-.7-39.3-.7-41.1.1zM398.8 153.8c-1 .2-3.8 1.4-6.3 2.8-2.5 1.3-5.3 2.4-6.1 2.4-.7 0-1.4.4-1.4 1 0 .5-.4 1-.9 1s-3.8 1.3-7.3 2.9c-3.5 1.6-8 3.6-10.1 4.5-3.4 1.4-3.7 1.8-3.1 4.3.4 1.5 1.1 2.9 1.6 3.1.4.2.8.8.8 1.4 0 .6 2.3 5.7 5 11.4 2.8 5.7 5 10.8 5 11.4 0 .5.5 1 1 1 .6 0 1 .6 1 1.4 0 .7 1.6 4.4 3.5 8.2 1.9 3.7 3.5 7.4 3.5 8.1 0 .7.5 1.3 1 1.3.6 0 1 .9 1 2s.4 2 .8 2 1.6 2.2 2.7 5c1.1 2.7 2.3 5 2.7 5 .4 0 .8.6.8 1.3 0 .6 1.6 4.5 3.5 8.4 1.9 4 3.5 7.7 3.5 8.3 0 .5.5 1 1 1 .6 0 1 .9 1 2s.5 2 1 2c.6 0 1 .5 1 1 0 .6 1.6 4.3 3.5 8.3 1.9 3.9 3.5 7.8 3.5 8.4 0 .7.5 1.3 1 1.3.6 0 1 .5 1 1 0 .6 2.3 5.7 5 11.4 2.8 5.7 5 10.8 5 11.5 0 .6.5 1.1 1 1.1.6 0 1 .5 1 1.1 0 .6 1.6 4.3 3.5 8.2 1.9 3.9 3.5 7.6 3.5 8.3 0 .7.3 1.4.8 1.6.9.4 6.2 11 6.2 12.6 0 .6.5 1.2 1 1.2.6 0 1 .6 1 1.3 0 .7 1.6 4.4 3.5 8.3 1.9 3.8 3.5 7.5 3.5 8.1 0 .7.5 1.3 1 1.3.6 0 1 .4 1 1 0 1.5 5.3 12.5 6.2 12.8.4.2.8.8.8 1.4 0 2.7 4.6 10.8 6.2 10.8 2 0 9.1-3.1 9.6-4.3.2-.4 1.5-.7 2.8-.7 1.3 0 2.4-.5 2.4-1 0-.6.4-1 1-1 1.8 0 22.2-10 21.8-10.8-.2-.4-2.5-5.1-5.1-10.5-2.6-5.4-4.7-10.2-4.7-10.7 0-.6-.4-1-1-1-.5 0-1-.6-1-1.3 0-.6-1.6-4.5-3.5-8.4-1.9-4-3.5-7.7-3.5-8.3 0-.5-.4-1-1-1-.5 0-1-.9-1-2s-.4-2-1-2c-.5 0-1-.5-1-1 0-.6-1.6-4.3-3.5-8.3-1.9-3.9-3.5-7.8-3.5-8.4 0-.7-.4-1.3-.8-1.3s-1.6-2.3-2.7-5c-1.1-2.8-2.3-5-2.7-5-.4 0-.8-.9-.8-2s-.4-2-1-2c-.5 0-1-.6-1-1.3 0-.7-1.6-4.4-3.5-8.1-1.9-3.8-3.5-7.5-3.5-8.2 0-.8-.4-1.4-1-1.4-.5 0-1-.5-1-1 0-.6-2.2-5.7-5-11.4-2.7-5.7-5-10.8-5-11.5 0-.6-.4-1.1-1-1.1-.5 0-1-.6-1-1.4 0-.7-1.6-4.4-3.5-8.2-1.9-3.7-3.5-7.4-3.5-8.1 0-.7-.3-1.3-.7-1.3-.5 0-2.1-3.2-3.8-7-1.6-3.8-3.3-7-3.7-7-.5 0-.8-1.1-.8-2.4 0-1.3-.3-2.6-.7-2.8-1-.4-6.3-11-6.3-12.6 0-.6-.4-1.2-1-1.2-.5 0-1-.6-1-1.2 0-1.6-5.3-12.2-6.2-12.6-.5-.2-.8-1.5-.8-2.8 0-1.3-.3-2.4-.7-2.4-.5 0-2.1-3.2-3.8-7-3.1-7.2-3.8-7.9-6.7-7.2zM38 521.5V540h464v-37H38v18.5z"/></g></svg>