<svg xmlns="http://www.w3.org/2000/svg" width="720" height="720" version="1.0" viewBox="0 0 540 540"><g fill="#fff"><path d="M38 136.5V273l105.3.2 105.2.3.3 53.8.2 53.7h42l.2-53.7.3-53.8 105.3-.3L502 273V0H38v136.5zm420.5.5v93.5h-377l-.3-92.5c-.1-50.9 0-93.1.3-93.8.3-1 38.6-1.2 188.7-1l188.3.3V137z"/><path d="M121 100.5V119l108.3-.2 108.2-.3.3-16c.1-8.8 0-17-.3-18.3L337 82H121v18.5zM121 173v18h88.9c48.9 0 89.6-.3 90.5-.6 1.4-.5 1.6-3 1.6-17.4 0-14.4-.2-16.9-1.6-17.4-.9-.3-41.6-.6-90.5-.6H121v18zM38 521.5V540h464v-37H38v18.5z"/></g></svg>