<svg xmlns="http://www.w3.org/2000/svg" width="720" height="720" version="1.0" viewBox="0 0 540 540"><g fill="#fff"><path d="M38 159.9c0 140.2.2 160.7 1.5 166.3.9 3.5 2 7.1 2.5 8 .6 1 1 2.5 1 3.3 0 .8.5 1.5 1 1.5.6 0 1 .7 1 1.5 0 1.4 4.5 9.3 5.9 10.5.3.3 1.9 2.3 3.6 4.5 1.6 2.2 3.8 4.8 4.9 5.7 1.2 1 2.6 2.2 3.3 2.8.7.5 1.5 1 1.9 1 .4 0 1.4.8 2.3 1.8.9.9 3.5 2.6 5.8 3.7 2.4 1.1 4.3 2.3 4.3 2.7 0 .5.8.8 1.8.8s2.2.4 2.8.9c1.3 1.2 12.6 3.8 22.4 5.1 11.6 1.5 329.5.8 339-.8 7-1.2 14.4-3.3 15.6-4.5.4-.4 1.6-.7 2.6-.7s1.8-.3 1.8-.8c0-.4 1.9-1.6 4.3-2.7 2.3-1.1 4.9-2.8 5.8-3.7.9-1 2-1.8 2.3-1.8.4 0 1.4-.7 2.2-1.5.8-.8 2.3-2 3.2-2.7 1-.7 3.1-3.1 4.7-5.3 1.7-2.2 3.3-4.2 3.6-4.5 1.4-1.2 5.9-9.1 5.9-10.5 0-.8.5-1.5 1-1.5.6 0 1-.8 1-1.8s.4-2.2.9-2.8c.5-.5 1.6-4.2 2.5-8.3 1.4-6.5 1.6-20 1.6-123.7V86h-97l-.2-42.8-.3-42.7L221.3.2 38 0v159.9zM360.7 43.8c1 .6 1.4 30.5 1.6 140.3.2 76.6.7 141.3 1.2 143.6.4 2.4 1.1 4.3 1.5 4.3.4 0 1 1.1 1.2 2.5l.5 2.5H233.8c-149.7 0-136 .8-145-7.9-2.6-2.5-4.8-5.4-4.8-6.3 0-.9-.6-1.8-1.2-2-1-.4-1.4-29-1.6-137.9-.1-75.5 0-137.9.2-138.6.4-1.1 27.7-1.3 139.3-1.3 76.3 0 139.4.4 140 .8zm97.8 180.6c0 75.9-.3 96-1.2 96.4-.7.2-1.3 1.1-1.3 2-.1 2.3-8.6 10.3-13.3 12.5-4.9 2.2-16.2 2.3-21.7.1-2.2-.9-4-2-4-2.5s-.5-.9-1-.9c-1.4 0-6-4.6-6-5.9 0-.5-.3-1.1-.7-1.3-.5-.2-1.6-2-2.5-4.1-1.7-3.5-1.8-10.4-1.8-98.3V128l26.8.2 26.7.3v95.9z"/><path d="m124.2 106.7.3 17.8h193l.3-17.8.2-17.7H124l.2 17.7zM124.4 162.3c-.2.7-.3 8.7-.2 17.7l.3 16.5 96.8.3 96.7.2v-36h-96.5c-77.9 0-96.7.2-97.1 1.3zM124 251.5V269h151v-35H124v17.5zM38 521.5V540h464v-37H38v18.5z"/></g></svg>