<svg xmlns="http://www.w3.org/2000/svg" width="720" height="720" version="1.0" viewBox="0 0 540 540"><g fill="#fff"><path d="M245 1c-1.4.4-3.9.8-5.7.9-7 .2-21.4 6.5-29.2 12.6-5.1 4.1-12.8 12.1-14.6 15.2-1.1 1.8-2.3 3.3-2.7 3.3-.4 0-.8.9-.8 2s-.4 2-.9 2c-1 0-5 11.4-6.4 18.5-1.4 6.9-2.1 187.5-.7 188.9.5.5 1 2.9 1 5.2 0 2.4.5 4.6 1 4.9.6.3 1 1.5 1 2.5 0 2.2 5 13.3 6.2 13.8.4.2.8.9.8 1.5 0 .7 1.1 2.4 2.5 3.9s2.5 3 2.5 3.3c0 .9 7.1 7.6 11.1 10.6 4.9 3.7 10.8 6.9 12.5 6.9.8 0 1.4.4 1.4 1 0 .5.8 1 1.8 1s2.2.4 2.7.9c1.2 1.2 11.2 3.3 18.3 3.8l5.2.5v18.9c0 10.4-.1 19-.2 19.1-.2.1-9.7.4-21.3.7l-21 .6-.3 15.5c-.1 8.5 0 16.5.3 17.7l.5 2.3h120v-36h-19.4c-10.7 0-20.1-.3-21-.6-1.4-.5-1.6-3.2-1.6-19.5V304h4.9c6.1 0 18.3-2.7 23.5-5.1 2.2-1.1 4.6-1.9 5.3-1.9.7 0 1.3-.4 1.3-.8 0-.5 1.8-1.6 4-2.6 4.6-2 21-17.8 21-20.1 0-.3 1.1-2.3 2.5-4.5s2.5-4.6 2.5-5.5c0-.8.5-1.5 1-1.5.6 0 1-1.1 1-2.4 0-1.4.4-2.7.9-3 2.1-1.4 2.5-16 2.5-104.1s-.4-102.7-2.5-104.1c-.5-.3-.9-1.3-.9-2.2 0-2.2-5.1-13.2-6.2-13.2-.4 0-.8-.7-.8-1.5s-.4-1.5-.9-1.5-1.2-.8-1.6-1.9c-.6-2-11.3-13.1-12.6-13.1-.4 0-1.4-.6-2.1-1.3-2.3-2.3-9.7-6.7-11.3-6.7-.8 0-1.5-.4-1.5-.9s-1.2-1.1-2.7-1.4c-2.6-.5-7.2-1.5-17.1-3.7-5.1-1.2-49.6-1.1-53.2 0zm54.1 45.9c6.2 2.9 10 6.7 13.6 13.3 1.7 3.1 1.8 8.5 1.8 92.5v89.1l-4 5.8c-2.2 3.1-4.9 6.2-6 6.8-1.1.6-2.2 1.3-2.5 1.6-.3.3-1.8 1.2-3.4 2-2.3 1.2-7.5 1.5-27 1.5-21.5 0-24.5-.2-28-1.9-4.8-2.3-12.6-10.1-12.6-12.6 0-1-.6-2-1.2-2.2-1-.4-1.4-6.9-1.6-27.1l-.4-26.7H270v-37h-42l.2-17.8.3-17.7 20.8-.3 20.7-.2V80l-20.7-.2-20.8-.3.2-8.9c.1-4.9.6-9.2 1-9.5.4-.3 1.4-1.7 2.1-3.1 2.1-4 6.8-9 8.6-9 .9 0 1.6-.4 1.6-.8 0-.9 5.4-2.8 10-3.6 1.4-.2 11.5-.3 22.5-.2 18.4.2 20.4.4 24.6 2.5zM110.5 74.2c-.3.7-.4 37.7-.3 82.3l.3 81 18.3.3 18.2.2-.2-82.2-.3-82.3-17.8-.3c-13.6-.2-17.9 0-18.2 1zM392.5 74.2c-.3.7-.4 37.7-.3 82.3l.3 81 18.3.3 18.2.2V73h-18c-13.5 0-18.2.3-18.5 1.2zM38 155.5V187h37v-63H38v31.5zM465 155.5V187h37v-63h-37v31.5zM38.7 503.7c-.9.8-.9 32.6-.1 34.7.6 1.5 21.9 1.6 232 1.6H502v-37H270.7c-127.3 0-231.7.3-232 .7z"/></g></svg>