<svg xmlns="http://www.w3.org/2000/svg" width="720" height="720" version="1.0" viewBox="0 0 540 540"><g fill="#fff"><path d="M44 152v152h208l-.2 19.3-.3 19.2-60.7.3-60.8.2v36h278v-36l-59.7-.2-59.8-.3-.3-19.3-.2-19.2h208V0H44v152zm409 0v108H270.1c-165.8 0-182.9-.1-183.5-1.6-.8-2-.8-210.8 0-212.8.6-1.5 17.7-1.6 183.5-1.6H453v108z"/><path d="M305.5 131.6c-31.9 32.1-58.1 58.8-58.3 59.4-.2.5 5.2 6.4 12 13.3l12.3 12.3 58.7-58.9 58.7-59-6.6-6.6c-3.7-3.6-9.4-9.4-12.7-12.8l-6.1-6.2-58 58.5zM363.3 175.6c-13.9 14-25.3 25.8-25.3 26.2 0 .7 23.8 25.2 24.4 25.2.2 0 10.4-10.2 22.7-22.6 12.3-12.5 23.9-24.1 25.7-25.8l3.4-3.3-12.6-12.6c-6.9-7-12.7-12.7-12.8-12.7-.2.1-11.7 11.6-25.5 25.6zM44 521.5V540h452v-37H44v18.5z"/></g></svg>