<svg xmlns="http://www.w3.org/2000/svg" width="2560" height="384" version="1.0" viewBox="0 0 1920 288"><path d="M1593 57.7c-3.6.8-7.8 2.1-9.5 2.8-1.6.8-4 1.6-5.2 2-2.5.7-12.9 7.3-16.8 10.6-5.7 5-7.2 6.5-10.4 11.2-7.9 11.6-11.3 27.9-9.2 44.6 3.1 24.5 19.2 41.9 45.6 49.6 7.3 2.1 34.3 3.2 42.5 1.7 13.9-2.6 23.8-6.7 32.9-13.4 7.2-5.4 7.9-6.2 13.2-14.3 7.2-11.2 8.4-15.6 8.4-32.5 0-13.2-.3-15.1-2.7-21.9-2.8-7.7-8-16.3-13.3-21.7-7.9-8.2-22-15.3-37-18.8-8.8-2-29.4-2-38.5.1zm33.4 14.4c19 4.8 27.5 10.1 34.3 21.4 5.7 9.4 6.5 12.9 6.1 27.1-.3 11.2-.7 13.6-2.7 17.9-3.5 7.2-10.9 16.5-13.1 16.5-.5 0-1 .4-1 .8 0 1.5-10.6 6.3-18.2 8.3-13 3.4-33.7 2.1-44.8-2.7-7.9-3.5-10.5-5.2-15.7-10.2-3.5-3.4-6.6-7.6-8.6-12-3-6.4-3.2-7.2-3.2-19.7 0-13.8 1.1-18.5 6.1-26.5 5.9-9.6 18.9-17.8 32.1-20.4 8.4-1.7 23.2-2 28.7-.5zM1773 57.6c-14.2 3.5-18.4 5.6-24.7 12.1-6.4 6.6-7.8 10.3-7.8 20.8 0 9.4 1.3 13.9 5.3 18 8.4 8.8 14.4 10.7 40.7 13 24.6 2.2 26.5 2.5 34.3 4.2 14.8 3.2 21 11.7 16.9 23-5.1 13.9-29.3 20.7-55.8 15.7-14.1-2.6-21.6-5.8-30.2-12.7-5.6-4.7-5.3-4.6-13.2-1.2-1.6.7-3.8 1.6-4.7 1.9-3.3 1-1.8 4.2 4.6 10.2 7.5 7.1 16.1 11.5 29.4 15.1 9 2.5 11.2 2.7 29.7 2.7 16.3 0 21.1-.3 26-1.8 15.5-4.6 24.7-11.5 29.7-22.3 2.3-5.2 2.8-7.6 2.8-14.3 0-7-.4-8.6-3-13.6-8-14.7-18.6-18.6-57.5-21.4-22.6-1.6-31.9-4-35.6-9.1-5.6-8-2.1-18 8.1-22.6 20.2-9.2 52.3-5.6 67.1 7.6l4.3 3.8 7.3-3.1c4-1.7 7.3-3.6 7.3-4.3 0-1.5-6.5-8.3-11-11.4-7-4.8-12.3-7-25.7-10.3-8-2-36.2-2-44.3 0zM90 118.5V178h16l-.7-47.4c-.3-26-.3-48.2.1-49.2.6-1.5 1-1.2 2.6 2.1 4.6 9.6 13.5 28.5 16.2 34.5 1.7 3.6 5 10.5 7.3 15.5 4.6 9.6 13.9 29.3 18.3 38.8l2.7 5.7 8.3-.2c9.6-.3 8.3.9 15.8-15.3 5.9-12.7 14.2-30.5 19.9-42 2.4-5 5.8-12.2 7.5-16 5.8-12.9 12.1-25.5 12.6-25.5.3 0 .3 22.3-.1 49.5l-.8 49.5H232V59h-23l-5.9 12.2c-7 14.7-16.5 34.4-23.4 48.8-2.7 5.8-7.4 15.5-10.3 21.7-3 6.1-5.9 12.4-6.5 13.9l-1 2.9-1.9-2.5c-1.1-1.4-2-2.9-2-3.4s-3-7-6.6-14.5c-3.6-7.5-8.1-16.8-9.9-20.6-3.3-7-13.1-27.4-22.8-47.7L113.5 59H90v59.5zM302 101.2c0 44.9.2 47.2 5.2 56.3 4.4 8.1 15.2 15.6 28.8 20.2 8.2 2.7 9.2 2.8 27.5 2.7 18.4-.1 19.3-.1 27.5-3 16-5.6 24.2-12.8 29.6-25.9l2.9-7 .3-42.8.4-42.7H406v40.2c-.1 41.8-.5 46.3-4.4 52.3-4.1 6.3-11.6 10.4-24 12.9-14.7 3-30 1.4-42.1-4.5-8.2-3.9-9.9-5.5-13.2-11.9l-2.8-5.5-.3-41.8-.3-41.7H302v42.2zM493 118.5V178h96v-15h-78V59h-18v59.5zM619 66v7h48v105h17v-50.9c0-28 .3-51.6.6-52.5.5-1.4 3.6-1.6 24.5-1.6H733V59H619v7zM797 118.5V178h18V59h-18v59.5zM887 118.5V178H904.3l-.6-49.8-.7-49.7 3.9 8c2.2 4.4 6 12.5 8.6 18 2.6 5.5 7 14.7 9.7 20.5 2.8 5.8 6.7 14.1 8.8 18.5 2.1 4.4 6.1 12.9 9 18.9 2.8 6 5.6 12 6.1 13.3.8 2.2 1.4 2.3 9.4 2.3h8.5l3.1-6.8c1.7-3.7 5.5-11.7 8.4-17.7 2.9-6.1 7.3-15.3 9.8-20.5 9.1-19.4 15-31.8 20-42l5.2-10.5.3 48.8.2 48.8 8.3-.3 8.2-.3.3-59.3.2-59.2h-12.2l-12.3.1-3.2 6.7c-1.7 3.7-6.2 13-9.8 20.7-3.7 7.7-8.7 18-11 23-7.5 15.7-16.5 34.8-19.8 41.7-1.8 3.7-3.4 6.7-3.7 6.7-.3 0-1.9-3-3.7-6.7-3.4-7.1-14.4-30.2-22.3-46.7-7.8-16.3-17.5-36.7-19.6-41.2l-1.9-4.2-12.2-.1H887v59.5zM1102.7 59.7c-.9.8-.9 114.6-.1 116.7.6 1.4 6.6 1.6 57.6 1.6h56.9l-.3-7.3-.3-7.2-48-.5-48-.5-.3-19.3-.2-19.2h90v-15l-44.7-.2-44.8-.3v-34l45.8-.3 45.7-.2V59h-54.3c-29.9 0-54.7.3-55 .7zM1280 118.6v59.6l38.3-.5c41.8-.4 42-.4 56.3-7.2 12.2-5.8 23.4-20.6 27.8-36.7 2.1-7.5 2.1-25.2 0-32.6-2.1-7.6-4.7-14.2-5.6-14.2-.5 0-.8-.6-.8-1.3 0-3.9-12.7-16.1-21.3-20.4-11.1-5.6-12.1-5.7-54.9-6L1280 59v59.6zm79.7-42.9c14.7 5.9 22.6 15.8 25.9 32.7 1.5 7.7 1.6 9.2.1 16.9-2.9 15.8-10.5 26.7-22.7 32.4-10.2 4.7-15.9 5.4-42 5.1l-23.5-.3-.3-44.8-.2-44.9 28.7.4c26.2.4 29.3.7 34 2.5zM1464 118.5V178h18V59h-18v59.5zM880.7 216.7c-.4.3-.7 3-.7 6v5.3h157v-12h-77.8c-42.8 0-78.2.3-78.5.7z" fill="#ffffff"/></svg>